<svg xmlns="http://www.w3.org/2000/svg" xmlns:xlink="http://www.w3.org/1999/xlink" xmlns:lucid="lucid" width="1700" height="1289.28"><g transform="translate(-80 -32.383217980803956)" lucid:page-tab-id="0_0"><path d="M645.33 99.97c0-22.08-19.1-40-42.66-40-23.56 0-42.67 17.92-42.67 40s19.1 40 42.67 40c23.55 0 42.66-17.92 42.66-40z" stroke="#000" stroke-opacity="0" stroke-width=".05" fill="#03254c"/><path d="M573.4 115.73l19.97-32.4 3.58 5.52-10.67 17.44 21.5-5.13-12.7-20.48 6.73-10.97 21.1 33.84-49.5 12.16z" stroke="#000" stroke-opacity="0" stroke-width=".05" fill="#ffad4f"/><path d="M571.26 121.73l52.3-16.72L634 121.74h-62.72z" stroke="#000" stroke-opacity="0" stroke-width=".05"/><path d="M571.26 121.73l52.3-16.72L634 121.74h-62.72z" stroke="#000" stroke-opacity="0" stroke-width=".05" fill="#ffad4f" fill-opacity=".5"/><path d="M665.33 58.38c0-3.3 2.7-6 6-6h648c3.32 0 6 2.7 6 6v83.18c0 3.3-2.68 6-6 6h-648c-3.3 0-6-2.7-6-6z" stroke="#000" stroke-opacity="0" stroke-width="3" fill-opacity="0"/><use xlink:href="#a" transform="matrix(1,0,0,1,670.3333333333333,57.383217980803956) translate(44.407407407407504 49.944444444444436)"/><use xlink:href="#b" transform="matrix(1,0,0,1,670.3333333333333,57.383217980803956) translate(162.62962962962968 49.944444444444436)"/><use xlink:href="#c" transform="matrix(1,0,0,1,670.3333333333333,57.383217980803956) translate(253.0987654320988 49.944444444444436)"/><use xlink:href="#d" transform="matrix(1,0,0,1,670.3333333333333,57.383217980803956) translate(503.07407407407396 49.944444444444436)"/><path d="M340 190.92c33.14 0 60 21.94 60 49 0 27.07-26.86 49-60 49H160c-33.14 0-60-21.93-60-49 0-27.06 26.86-49 60-49z" stroke="#5e5e5e" stroke-width="3" fill="#03254c"/><use xlink:href="#e" transform="matrix(1,0,0,1,105,195.92488464747066) translate(112.18401234567902 23.11111111111111)"/><use xlink:href="#f" transform="matrix(1,0,0,1,105,195.92488464747066) translate(71.69753086419753 52.44444444444444)"/><use xlink:href="#g" transform="matrix(1,0,0,1,105,195.92488464747066) translate(127.19135802469137 52.44444444444444)"/><use xlink:href="#h" transform="matrix(1,0,0,1,105,195.92488464747066) translate(53.30746913580248 79.11111111111111)"/><use xlink:href="#i" transform="matrix(1,0,0,1,105,195.92488464747066) translate(125.90006172839506 79.11111111111111)"/><use xlink:href="#j" transform="matrix(1,0,0,1,105,195.92488464747066) translate(172.62845679012344 79.11111111111111)"/><path d="M800 240.92H402.5v-2H800" fill="#ffad4f"/><path d="M402.53 240.92h-1.07l.04-1-.03-1h1.06M815.26 239.92L801 244.56v-9.27z" fill="#ffad4f"/><path d="M818.5 239.92l-18.5 6.02V233.9m2 9.28l10.03-3.26-10.03-3.25" fill="#ffad4f"/><path d="M820 185.92c0-3.3 2.7-6 6-6h188c3.3 0 6 2.7 6 6v108c0 3.32-2.7 6-6 6H826c-3.3 0-6-2.68-6-6z" stroke="#5e5e5e" stroke-width="3" fill="#03254c"/><use xlink:href="#k" transform="matrix(1,0,0,1,832,191.92488464747066) translate(56.824074074074076 35.111111111111114)"/><use xlink:href="#l" transform="matrix(1,0,0,1,832,191.92488464747066) translate(35.19753086419753 69.77777777777777)"/><path d="M1022.5 239.92H1674c3.3 0 6 2.7 6 6v85" stroke="#ffad4f" stroke-width="2" fill="none"/><path d="M1022.53 240.92h-1.03v-2h1.03" fill="#ffad4f"/><path d="M1680 346.2l-4.64-14.28h9.28z" stroke="#ffad4f" stroke-width="2" fill="#ffad4f"/><path d="M1600 356.92c0-3.3 2.7-6 6-6h148c3.3 0 6 2.7 6 6v108c0 3.32-2.7 6-6 6h-148c-3.3 0-6-2.68-6-6z" stroke="#5e5e5e" stroke-width="3" fill="#03254c"/><use xlink:href="#m" transform="matrix(1,0,0,1,1612,362.92488464747066) translate(44.01851851851852 26.77777777777778)"/><use xlink:href="#n" transform="matrix(1,0,0,1,1612,362.92488464747066) translate(29.820987654320987 53.44444444444445)"/><use xlink:href="#o" transform="matrix(1,0,0,1,1612,362.92488464747066) translate(5.129629629629633 80.11111111111111)"/><use xlink:href="#p" transform="matrix(1,0,0,1,1612,362.92488464747066) translate(70.5 80.11111111111111)"/><path d="M579.5 276.7l-163.37.02-2.64.72-1.8 1.78-.7 2.64v109.06h-2V281.6l.92-3.42 2.53-2.53 3.42-.93H579.5m238 1.87H656.4v-2h161.1" fill="#ffad4f"/><path d="M818.5 276.6h-1.03v-2h1.03M410 406.2l-4.64-14.28h9.28z" fill="#ffad4f"/><path d="M410 409.42l-6-18.5h12m-9.26 2l3.26 10.03 3.26-10.03" fill="#ffad4f"/><use xlink:href="#q" transform="matrix(1,0,0,1,579.5068249805068,264.92643883969964) translate(0 14.222222222222223)"/><path d="M300 416.92c0-3.3 2.7-6 6-6h208c3.3 0 6 2.7 6 6v108c0 3.32-2.7 6-6 6H306c-3.3 0-6-2.68-6-6z" stroke="#5e5e5e" stroke-width="3" fill="#03254c"/><use xlink:href="#r" transform="matrix(1,0,0,1,312,422.92488464747066) translate(3.8024691358024825 38.77777777777778)"/><use xlink:href="#s" transform="matrix(1,0,0,1,312,422.92488464747066) translate(66.64197530864197 38.77777777777778)"/><use xlink:href="#t" transform="matrix(1,0,0,1,312,422.92488464747066) translate(152.8148148148148 38.77777777777778)"/><use xlink:href="#u" transform="matrix(1,0,0,1,312,422.92488464747066) translate(22.166666666666657 65.44444444444446)"/><use xlink:href="#v" transform="matrix(1,0,0,1,312,422.92488464747066) translate(77.72222222222221 65.44444444444446)"/><path d="M410 533.42v59.4" stroke="#5e5e5e" stroke-width="2" fill="none"/><path d="M411 533.45h-2v-1.03h2" fill="#5e5e5e"/><path d="M410 608.08l-4.64-14.27h9.28z" stroke="#5e5e5e" stroke-width="2" fill="#5e5e5e"/><path d="M404.9 614.1c2.82-1.76 7.38-1.76 10.2 0l134.8 83.66c2.82 1.75 2.82 4.58 0 6.33l-134.8 83.66c-2.82 1.75-7.38 1.75-10.2 0L270.1 704.1c-2.82-1.76-2.82-4.6 0-6.34z" stroke="#5e5e5e" stroke-width="3" fill="#03254c"/><use xlink:href="#w" transform="matrix(1,0,0,1,270,615.9248846474707) translate(43.46179012345679 76.21527777777777)"/><use xlink:href="#x" transform="matrix(1,0,0,1,270,615.9248846474707) translate(117.10376543209875 76.21527777777777)"/><use xlink:href="#y" transform="matrix(1,0,0,1,270,615.9248846474707) translate(147.96796296296296 76.21527777777777)"/><use xlink:href="#z" transform="matrix(1,0,0,1,270,615.9248846474707) translate(215.684012345679 76.21527777777777)"/><use xlink:href="#A" transform="matrix(1,0,0,1,270,615.9248846474707) translate(78.43092592592592 102.88194444444446)"/><use xlink:href="#B" transform="matrix(1,0,0,1,270,615.9248846474707) translate(122.81364197530864 102.88194444444446)"/><path d="M213.5 910.92h-2V798.75h2m52.2-96.83h-47.07l-2.64.72-1.8 1.78-.7 2.64v70.35h-2v-70.6l.92-3.42 2.53-2.53 3.42-.93h47.32" fill="#ffad4f"/><path d="M266.75 701.92h-1.1v-2h.97M212.5 926.2l-4.64-14.28h9.28z" fill="#ffad4f"/><path d="M212.5 929.42l-6-18.5h12m-9.26 2l3.26 10.03 3.26-10.03" fill="#ffad4f"/><use xlink:href="#C" transform="matrix(1,0,0,1,197.19135802469137,777.4139464587753) translate(0 14.222222222222223)"/><path d="M105 936.92c0-3.3 2.7-6 6-6h203c3.3 0 6 2.7 6 6v118.67c0 3.3-2.7 6-6 6H111c-3.3 0-6-2.7-6-6z" stroke="#5e5e5e" stroke-width="3" fill="#03254c"/><use xlink:href="#D" transform="matrix(1,0,0,1,117,942.9248846474707) translate(6.117283950617292 31.15277777777778)"/><use xlink:href="#E" transform="matrix(1,0,0,1,117,942.9248846474707) translate(89.88271604938272 31.15277777777778)"/><use xlink:href="#F" transform="matrix(1,0,0,1,117,942.9248846474707) translate(146.67283950617283 31.15277777777778)"/><use xlink:href="#G" transform="matrix(1,0,0,1,117,942.9248846474707) translate(30.839506172839506 57.81944444444445)"/><use xlink:href="#H" transform="matrix(1,0,0,1,117,942.9248846474707) translate(64.04938271604938 57.81944444444445)"/><use xlink:href="#I" transform="matrix(1,0,0,1,117,942.9248846474707) translate(55.5 84.48611111111111)"/><path d="M648.5 910.92h-2V778.75h2m-3.45-77.9l2.53 2.53.92 3.4v50.63h-2v-50.34l-.7-2.64-1.8-1.78-2.63-.72H554.3v-2h87.33" fill="#ffad4f"/><path d="M554.34 701.92h-.96l-.13-2h1.1M647.5 926.2l-4.64-14.28h9.28z" fill="#ffad4f"/><path d="M647.5 929.42l-6-18.5h12m-9.26 2l3.26 10.03 3.26-10.03" fill="#ffad4f"/><use xlink:href="#J" transform="matrix(1,0,0,1,635.6975308641976,757.4139464587753) translate(0 14.222222222222223)"/><path d="M540 936.92c0-3.3 2.7-6 6-6h203c3.3 0 6 2.7 6 6v118.67c0 3.3-2.7 6-6 6H546c-3.3 0-6-2.7-6-6z" stroke="#5e5e5e" stroke-width="3" fill="#03254c"/><use xlink:href="#K" transform="matrix(1,0,0,1,552,942.9248846474707) translate(0.6851851851851904 44.52777777777778)"/><use xlink:href="#L" transform="matrix(1,0,0,1,552,942.9248846474707) translate(90.74691358024693 44.52777777777778)"/><use xlink:href="#I" transform="matrix(1,0,0,1,552,942.9248846474707) translate(55.5 71.19444444444446)"/><path d="M322.5 996.26H520" stroke="#ffad4f" stroke-width="2" fill="none"/><path d="M322.53 997.26h-1.03v-2h1.03" fill="#ffad4f"/><path d="M535.26 996.26L521 1000.9v-9.28z" stroke="#ffad4f" stroke-width="2" fill="#ffad4f"/><path d="M647.5 1064.1v48.53" stroke="#5e5e5e" stroke-width="2" fill="none"/><path d="M648.5 1064.12h-2v-1.03h2" fill="#5e5e5e"/><path d="M647.5 1127.9l-4.64-14.27h9.28z" stroke="#5e5e5e" stroke-width="2" fill="#5e5e5e"/><path d="M642.22 1133.77c2.9-1.57 7.65-1.57 10.56 0l130.7 70.37c2.9 1.57 2.9 4.12 0 5.7l-130.7 70.36c-2.9 1.57-7.65 1.57-10.56 0l-130.7-70.37c-2.9-1.57-2.9-4.12 0-5.7z" stroke="#5e5e5e" stroke-width="3" fill="#03254c"/><use xlink:href="#M" transform="matrix(1,0,0,1,511.25,1135.9248846474707) translate(86.22104938271606 49.05902777777778)"/><use xlink:href="#N" transform="matrix(1,0,0,1,511.25,1135.9248846474707) translate(128.01117283950617 75.72569444444446)"/><use xlink:href="#O" transform="matrix(1,0,0,1,511.25,1135.9248846474707) translate(105.78895061728396 102.39236111111111)"/><path d="M648.5 1293.87l.7 2.64 1.8 1.8 2.63.7h377.06v2H653.36l-3.42-.92-2.53-2.53-.92-3.42v-10.3h2m690.83 10.3l-.92 3.42-2.52 2.53-3.4.92H1054.3v-2h277.9l2.64-.7 1.78-1.8.7-2.63v-91.7h2" fill="#ffad4f"/><path d="M648.5 1283.86h-2v-1.07l.54.08 1.46-.14M1342.97 1201.18h-9.27l4.63-14.27z" fill="#ffad4f"/><path d="M1344.35 1202.18h-12.03l6-18.5m-3.24 16.5h6.5l-3.25-10.03" fill="#ffad4f"/><g><use xlink:href="#J" transform="matrix(1,0,0,1,1030.6947718527065,1289.3333333333333) translate(0 14.222222222222223)"/></g><path d="M1398.8 1080c22.58 0 40.87 22.87 40.87 51.1 0 28.2-18.3 51.07-40.87 51.07h-122.6c-22.58 0-40.87-22.87-40.87-51.08 0-28.23 18.3-51.1 40.87-51.1z" stroke="#5e5e5e" stroke-width="3" fill="#03254c"/><g><use xlink:href="#P" transform="matrix(1,0,0,1,1240.3251153525293,1085) translate(69.42592592592592 50.39583333333333)"/></g><path d="M820 353.26c0-3.32 2.7-6 6-6h188c3.3 0 6 2.68 6 6v108c0 3.3-2.7 6-6 6H826c-3.3 0-6-2.7-6-6z" stroke="#5e5e5e" stroke-width="3" fill="#03254c"/><g><use xlink:href="#Q" transform="matrix(1,0,0,1,832,359.25821798080403) translate(12.969135802469154 38.77777777777778)"/><use xlink:href="#R" transform="matrix(1,0,0,1,832,359.25821798080403) translate(32.01234567901235 65.44444444444446)"/><use xlink:href="#S" transform="matrix(1,0,0,1,832,359.25821798080403) translate(86.14814814814815 65.44444444444446)"/></g><path d="M779.5 803.3l.7 2.63 1.8 1.78 2.63.72h149.5l3.42.93 2.53 2.53.92 3.4v15.64h-2v-15.36l-.7-2.64-1.8-1.78-2.63-.72h-149.5l-3.42-.92-2.53-2.53-.92-3.4V621.98h2m38-213.74h-32.87l-2.64.7-1.8 1.8-.7 2.63v187.26h-2V413.13l.92-3.42 2.53-2.52 3.42-.92h33.13" fill="#ffad4f"/><path d="M818.5 408.26h-1.03v-2h1.03M940 846.2l-4.64-14.28h9.28z" fill="#ffad4f"/><path d="M940 849.42l-6-18.5h12m-9.26 2l3.26 10.03 3.26-10.03" fill="#ffad4f"/><g><use xlink:href="#T" transform="matrix(1,0,0,1,754.3271604938271,600.658217980804) translate(0 14.222222222222223)"/></g><path d="M860 856.92c0-3.3 2.7-6 6-6h148c3.3 0 6 2.7 6 6v108c0 3.32-2.7 6-6 6H866c-3.3 0-6-2.68-6-6z" stroke="#5e5e5e" stroke-width="3" fill="#03254c"/><g><use xlink:href="#U" transform="matrix(1,0,0,1,871.9999999999999,862.9248846474707) translate(31.740740740740748 54.33333333333333)"/></g><path d="M941 1201.12l-.92 3.4-2.53 2.54-3.42.92H787.9v-2h145.97l2.64-.7 1.8-1.8.7-2.63v-23.93h2m0-21.33h-2V990.92h2" fill="#ffad4f"/><path d="M787.92 1207.98h-1.1l.15-2h.95M944.64 989.93h-9.28l4.64-14.27z" fill="#ffad4f"/><path d="M946 990.93h-12l6-18.5m-3.26 16.5h6.52L940 978.9" fill="#ffad4f"/><g><use xlink:href="#C" transform="matrix(1,0,0,1,924.6913580246912,1155.5891504517485) translate(0 14.222222222222223)"/></g><path d="M1125 388.17c0-3.3 2.7-6 6-6h358c3.3 0 6 2.7 6 6v68c0 3.32-2.7 6-6 6h-358c-3.3 0-6-2.68-6-6z" stroke="#5e5e5e" stroke-width="3" fill="#03254c"/><g><use xlink:href="#V" transform="matrix(1,0,0,1,1137,394.17488464747066) translate(67.01234567901236 17.77777777777778)"/><use xlink:href="#W" transform="matrix(1,0,0,1,1137,394.17488464747066) translate(147.07407407407408 17.77777777777778)"/><use xlink:href="#X" transform="matrix(1,0,0,1,1137,394.17488464747066) translate(211.2716049382716 17.77777777777778)"/><use xlink:href="#Y" transform="matrix(1,0,0,1,1137,394.17488464747066) translate(229.79012345679013 17.77777777777778)"/><use xlink:href="#Z" transform="matrix(1,0,0,1,1137,394.17488464747066) translate(11.734567901234584 44.44444444444444)"/><use xlink:href="#aa" transform="matrix(1,0,0,1,1137,394.17488464747066) translate(134.75925925925927 44.44444444444444)"/><use xlink:href="#ab" transform="matrix(1,0,0,1,1137,394.17488464747066) translate(188.89506172839506 44.44444444444444)"/></g><path d="M1024.24 426.42c-2.34-2.35-2.34-6.14 0-8.5l17.77-17.75c2.35-2.35 4.25-1.56 4.25 1.75v1.13c0 3.3 2.7 6 6 6h40.5c3.3 0 6-2.7 6-6v-1.13c0-3.3 1.9-4.1 4.24-1.75l17.76 17.76c2.34 2.35 2.34 6.14 0 8.5L1103 444.17c-2.35 2.35-4.25 1.56-4.25-1.76v-1.12c0-3.3-2.7-6-6-6h-40.5c-3.3 0-6 2.7-6 6v1.12c0 3.32-1.9 4.1-4.24 1.76zM1499.24 426.42c-2.34-2.35-2.34-6.14 0-8.5l17.77-17.75c2.35-2.35 4.25-1.56 4.25 1.75v1.13c0 3.3 2.7 6 6 6h40.5c3.3 0 6-2.7 6-6v-1.13c0-3.3 1.9-4.1 4.24-1.75l17.76 17.76c2.34 2.35 2.34 6.14 0 8.5L1578 444.17c-2.35 2.35-4.25 1.56-4.25-1.76v-1.12c0-3.3-2.7-6-6-6h-40.5c-3.3 0-6 2.7-6 6v1.12c0 3.32-1.9 4.1-4.24 1.76z" stroke="#5e5e5e" stroke-width="3" fill="#ffad4f"/><path d="M1160 856.92c0-3.3 2.7-6 6-6h343c3.3 0 6 2.7 6 6v108c0 3.32-2.7 6-6 6h-343c-3.3 0-6-2.68-6-6z" stroke="#5e5e5e" stroke-width="3" fill="#03254c"/><g><use xlink:href="#ac" transform="matrix(1,0,0,1,1165,855.9248846474707) translate(30.240740740740733 45.39583333333333)"/><use xlink:href="#ad" transform="matrix(1,0,0,1,1165,855.9248846474707) translate(144.98148148148147 45.39583333333333)"/><use xlink:href="#ae" transform="matrix(1,0,0,1,1165,855.9248846474707) translate(45.35185185185186 77.39583333333333)"/><use xlink:href="#af" transform="matrix(1,0,0,1,1165,855.9248846474707) translate(82.38888888888889 77.39583333333333)"/><use xlink:href="#ag" transform="matrix(1,0,0,1,1165,855.9248846474707) translate(104.61111111111111 77.39583333333333)"/><use xlink:href="#ah" transform="matrix(1,0,0,1,1165,855.9248846474707) translate(163.7962962962963 77.39583333333333)"/><use xlink:href="#ai" transform="matrix(1,0,0,1,1165,855.9248846474707) translate(228.75925925925924 77.39583333333333)"/></g><path d="M1022.5 910.92H1140" stroke="#ffad4f" stroke-width="2" fill="none"/><path d="M1022.53 911.92h-1.03v-2h1.03" fill="#ffad4f"/><path d="M1155.26 910.92l-14.26 4.64v-9.27z" stroke="#ffad4f" stroke-width="2" fill="#ffad4f"/><path d="M1337.5 973.42V1060" stroke="#ffad4f" stroke-width="2" fill="none"/><path d="M1338.5 973.45h-2v-1.03h2" fill="#ffad4f"/><path d="M1337.5 1075.26l-4.64-14.26h9.28z" stroke="#ffad4f" stroke-width="2" fill="#ffad4f"/><defs><path fill="#03254c" d="M199 0l-22-63H83L61 0H9l90-248h61L250 0h-51zm-33-102l-36-108c-10 38-24 72-36 108h72" id="aj"/><path fill="#03254c" d="M135-194c87-1 58 113 63 194h-50c-7-57 23-157-34-157-59 0-34 97-39 157H25l-1-190h47c2 12-1 28 3 38 12-26 28-41 61-42" id="ak"/><path fill="#03254c" d="M185-48c-13 30-37 53-82 52C43 2 14-33 14-96s30-98 90-98c62 0 83 45 84 108H66c0 31 8 55 39 56 18 0 30-7 34-22zm-45-69c5-46-57-63-70-21-2 6-4 13-4 21h74" id="al"/><path fill="#03254c" d="M144 0l-44-69L55 0H2l70-98-66-92h53l41 62 40-62h54l-67 91 71 99h-54" id="am"/><g id="a"><use transform="matrix(0.0987654320987654,0,0,0.0987654320987654,0,0)" xlink:href="#aj"/><use transform="matrix(0.0987654320987654,0,0,0.0987654320987654,25.58024691358024,0)" xlink:href="#ak"/><use transform="matrix(0.0987654320987654,0,0,0.0987654320987654,47.20987654320986,0)" xlink:href="#ak"/><use transform="matrix(0.0987654320987654,0,0,0.0987654320987654,68.83950617283948,0)" xlink:href="#al"/><use transform="matrix(0.0987654320987654,0,0,0.0987654320987654,88.59259259259255,0)" xlink:href="#am"/></g><path fill="#03254c" d="M85 4C-2 5 27-109 22-190h50c7 57-23 150 33 157 60-5 35-97 40-157h50l1 190h-47c-2-12 1-28-3-38-12 25-28 42-61 42" id="an"/><path fill="#03254c" d="M115-3C79 11 28 4 28-45v-112H4v-33h27l15-45h31v45h36v33H77v99c-1 23 16 31 38 25v30" id="ao"/><path fill="#03254c" d="M110-194c64 0 96 36 96 99 0 64-35 99-97 99-61 0-95-36-95-99 0-62 34-99 96-99zm-1 164c35 0 45-28 45-65 0-40-10-65-43-65-34 0-45 26-45 65 0 36 10 65 43 65" id="ap"/><g id="b"><use transform="matrix(0.0987654320987654,0,0,0.0987654320987654,0,0)" xlink:href="#aj"/><use transform="matrix(0.0987654320987654,0,0,0.0987654320987654,25.58024691358024,0)" xlink:href="#an"/><use transform="matrix(0.0987654320987654,0,0,0.0987654320987654,47.20987654320986,0)" xlink:href="#ao"/><use transform="matrix(0.0987654320987654,0,0,0.0987654320987654,58.96296296296294,0)" xlink:href="#ap"/></g><path fill="#03254c" d="M67-125c0 53 21 87 73 88 37 1 54-22 65-47l45 17C233-25 199 4 140 4 58 4 20-42 15-125 8-235 124-281 211-232c18 10 29 29 36 50l-46 12c-8-25-30-41-62-41-52 0-71 34-72 86" id="aq"/><path fill="#03254c" d="M220-157c-53 9-28 100-34 157h-49v-107c1-27-5-49-29-50C55-147 81-57 75 0H25l-1-190h47c2 12-1 28 3 38 10-53 101-56 108 0 13-22 24-43 59-42 82 1 51 116 57 194h-49v-107c-1-25-5-48-29-50" id="ar"/><path fill="#03254c" d="M135-194c53 0 70 44 70 98 0 56-19 98-73 100-31 1-45-17-59-34 3 33 2 69 2 105H25l-1-265h48c2 10 0 23 3 31 11-24 29-35 60-35zM114-30c33 0 39-31 40-66 0-38-9-64-40-64-56 0-55 130 0 130" id="as"/><path fill="#03254c" d="M88-194c31-1 46 15 58 34l-1-101h50l1 261h-48c-2-10 0-23-3-31C134-8 116 4 84 4 32 4 16-41 15-95c0-56 19-97 73-99zm17 164c33 0 40-30 41-66 1-37-9-64-41-64s-38 30-39 65c0 43 13 65 39 65" id="at"/><path fill="#03254c" d="M25-224v-37h50v37H25zM25 0v-190h50V0H25" id="au"/><path fill="#03254c" d="M195-6C206 82 75 100 31 46c-4-6-6-13-8-21l49-6c3 16 16 24 34 25 40 0 42-37 40-79-11 22-30 35-61 35-53 0-70-43-70-97 0-56 18-96 73-97 30 0 46 14 59 34l2-30h47zm-90-29c32 0 41-27 41-63 0-35-9-62-40-62-32 0-39 29-40 63 0 36 9 62 39 62" id="av"/><g id="c"><use transform="matrix(0.0987654320987654,0,0,0.0987654320987654,0,0)" xlink:href="#aq"/><use transform="matrix(0.0987654320987654,0,0,0.0987654320987654,25.58024691358024,0)" xlink:href="#ap"/><use transform="matrix(0.0987654320987654,0,0,0.0987654320987654,47.20987654320986,0)" xlink:href="#ar"/><use transform="matrix(0.0987654320987654,0,0,0.0987654320987654,78.81481481481478,0)" xlink:href="#as"/><use transform="matrix(0.0987654320987654,0,0,0.0987654320987654,100.4444444444444,0)" xlink:href="#ap"/><use transform="matrix(0.0987654320987654,0,0,0.0987654320987654,122.074074074074,0)" xlink:href="#an"/><use transform="matrix(0.0987654320987654,0,0,0.0987654320987654,143.70370370370364,0)" xlink:href="#ak"/><use transform="matrix(0.0987654320987654,0,0,0.0987654320987654,165.33333333333326,0)" xlink:href="#at"/><use transform="matrix(0.0987654320987654,0,0,0.0987654320987654,186.96296296296288,0)" xlink:href="#au"/><use transform="matrix(0.0987654320987654,0,0,0.0987654320987654,196.8395061728394,0)" xlink:href="#ak"/><use transform="matrix(0.0987654320987654,0,0,0.0987654320987654,218.46913580246903,0)" xlink:href="#av"/></g><path fill="#03254c" d="M128 0H69L1-190h53L99-40l48-150h52" id="aw"/><path fill="#03254c" d="M133-34C117-15 103 5 69 4 32 3 11-16 11-54c-1-60 55-63 116-61 1-26-3-47-28-47-18 1-26 9-28 27l-52-2c7-38 36-58 82-57s74 22 75 68l1 82c-1 14 12 18 25 15v27c-30 8-71 5-69-32zm-48 3c29 0 43-24 42-57-32 0-66-3-65 30 0 17 8 27 23 27" id="ax"/><path fill="#03254c" d="M25 0v-261h50V0H25" id="ay"/><path fill="#03254c" d="M137-138c1-29-70-34-71-4 15 46 118 7 119 86 1 83-164 76-172 9l43-7c4 19 20 25 44 25 33 8 57-30 24-41C81-84 22-81 20-136c-2-80 154-74 161-7" id="az"/><g id="d"><use transform="matrix(0.0987654320987654,0,0,0.0987654320987654,0,0)" xlink:href="#aw"/><use transform="matrix(0.0987654320987654,0,0,0.0987654320987654,19.753086419753078,0)" xlink:href="#ax"/><use transform="matrix(0.0987654320987654,0,0,0.0987654320987654,39.506172839506156,0)" xlink:href="#an"/><use transform="matrix(0.0987654320987654,0,0,0.0987654320987654,61.13580246913578,0)" xlink:href="#ay"/><use transform="matrix(0.0987654320987654,0,0,0.0987654320987654,71.01234567901233,0)" xlink:href="#ao"/><use transform="matrix(0.0987654320987654,0,0,0.0987654320987654,82.76543209876542,0)" xlink:href="#az"/></g><path fill="#ffad4f" d="M169-182c-1-43-94-46-97-3 18 66 151 10 154 114 3 95-165 93-204 36-6-8-10-19-12-30l50-8c3 46 112 56 116 5-17-69-150-10-154-114-4-87 153-88 188-35 5 8 8 18 10 28" id="aA"/><path fill="#ffad4f" d="M115-3C79 11 28 4 28-45v-112H4v-33h27l15-45h31v45h36v33H77v99c-1 23 16 31 38 25v30" id="aB"/><path fill="#ffad4f" d="M133-34C117-15 103 5 69 4 32 3 11-16 11-54c-1-60 55-63 116-61 1-26-3-47-28-47-18 1-26 9-28 27l-52-2c7-38 36-58 82-57s74 22 75 68l1 82c-1 14 12 18 25 15v27c-30 8-71 5-69-32zm-48 3c29 0 43-24 42-57-32 0-66-3-65 30 0 17 8 27 23 27" id="aC"/><path fill="#ffad4f" d="M135-150c-39-12-60 13-60 57V0H25l-1-190h47c2 13-1 29 3 40 6-28 27-53 61-41v41" id="aD"/><g id="e"><use transform="matrix(0.08024691358024691,0,0,0.08024691358024691,0,0)" xlink:href="#aA"/><use transform="matrix(0.08024691358024691,0,0,0.08024691358024691,19.25925925925926,0)" xlink:href="#aB"/><use transform="matrix(0.08024691358024691,0,0,0.08024691358024691,28.80864197530864,0)" xlink:href="#aC"/><use transform="matrix(0.08024691358024691,0,0,0.08024691358024691,44.858024691358025,0)" xlink:href="#aD"/><use transform="matrix(0.08024691358024691,0,0,0.08024691358024691,56.092592592592595,0)" xlink:href="#aB"/></g><path fill="#ffad4f" d="M238-95c0 69-44 99-111 99C63 4 22-25 22-93v-155h51v151c-1 38 19 59 55 60 90 1 49-130 58-211h52v153" id="aE"/><path fill="#ffad4f" d="M137-138c1-29-70-34-71-4 15 46 118 7 119 86 1 83-164 76-172 9l43-7c4 19 20 25 44 25 33 8 57-30 24-41C81-84 22-81 20-136c-2-80 154-74 161-7" id="aF"/><path fill="#ffad4f" d="M185-48c-13 30-37 53-82 52C43 2 14-33 14-96s30-98 90-98c62 0 83 45 84 108H66c0 31 8 55 39 56 18 0 30-7 34-22zm-45-69c5-46-57-63-70-21-2 6-4 13-4 21h74" id="aG"/><g id="f"><use transform="matrix(0.06172839506172839,0,0,0.06172839506172839,0,0)" xlink:href="#aE"/><use transform="matrix(0.06172839506172839,0,0,0.06172839506172839,15.987654320987653,0)" xlink:href="#aF"/><use transform="matrix(0.06172839506172839,0,0,0.06172839506172839,28.333333333333332,0)" xlink:href="#aG"/><use transform="matrix(0.06172839506172839,0,0,0.06172839506172839,40.67901234567901,0)" xlink:href="#aD"/></g><path fill="#ffad4f" d="M88-194c31-1 46 15 58 34l-1-101h50l1 261h-48c-2-10 0-23-3-31C134-8 116 4 84 4 32 4 16-41 15-95c0-56 19-97 73-99zm17 164c33 0 40-30 41-66 1-37-9-64-41-64s-38 30-39 65c0 43 13 65 39 65" id="aH"/><path fill="#ffad4f" d="M135-194c53 0 70 44 70 98 0 56-19 98-73 100-31 1-45-17-59-34 3 33 2 69 2 105H25l-1-265h48c2 10 0 23 3 31 11-24 29-35 60-35zM114-30c33 0 39-31 40-66 0-38-9-64-40-64-56 0-55 130 0 130" id="aI"/><path fill="#ffad4f" d="M110-194c64 0 96 36 96 99 0 64-35 99-97 99-61 0-95-36-95-99 0-62 34-99 96-99zm-1 164c35 0 45-28 45-65 0-40-10-65-43-65-34 0-45 26-45 65 0 36 10 65 43 65" id="aJ"/><path fill="#ffad4f" d="M25-224v-37h50v37H25zM25 0v-190h50V0H25" id="aK"/><g id="g"><use transform="matrix(0.06172839506172839,0,0,0.06172839506172839,0,0)" xlink:href="#aH"/><use transform="matrix(0.06172839506172839,0,0,0.06172839506172839,13.518518518518517,0)" xlink:href="#aG"/><use transform="matrix(0.06172839506172839,0,0,0.06172839506172839,25.864197530864196,0)" xlink:href="#aI"/><use transform="matrix(0.06172839506172839,0,0,0.06172839506172839,39.382716049382715,0)" xlink:href="#aJ"/><use transform="matrix(0.06172839506172839,0,0,0.06172839506172839,52.901234567901234,0)" xlink:href="#aF"/><use transform="matrix(0.06172839506172839,0,0,0.06172839506172839,65.24691358024691,0)" xlink:href="#aK"/><use transform="matrix(0.06172839506172839,0,0,0.06172839506172839,71.41975308641975,0)" xlink:href="#aB"/><use transform="matrix(0.06172839506172839,0,0,0.06172839506172839,78.76543209876543,0)" xlink:href="#aF"/></g><path fill="#ffad4f" d="M76-208v77h127v40H76V0H24v-248h183v40H76" id="aL"/><path fill="#ffad4f" d="M85 4C-2 5 27-109 22-190h50c7 57-23 150 33 157 60-5 35-97 40-157h50l1 190h-47c-2-12 1-28-3-38-12 25-28 42-61 42" id="aM"/><path fill="#ffad4f" d="M135-194c87-1 58 113 63 194h-50c-7-57 23-157-34-157-59 0-34 97-39 157H25l-1-190h47c2 12-1 28 3 38 12-26 28-41 61-42" id="aN"/><g id="h"><use transform="matrix(0.06172839506172839,0,0,0.06172839506172839,0,0)" xlink:href="#aL"/><use transform="matrix(0.06172839506172839,0,0,0.06172839506172839,13.518518518518517,0)" xlink:href="#aM"/><use transform="matrix(0.06172839506172839,0,0,0.06172839506172839,27.037037037037035,0)" xlink:href="#aN"/><use transform="matrix(0.06172839506172839,0,0,0.06172839506172839,40.55555555555555,0)" xlink:href="#aH"/><use transform="matrix(0.06172839506172839,0,0,0.06172839506172839,54.07407407407407,0)" xlink:href="#aF"/></g><g id="i"><use transform="matrix(0.06172839506172839,0,0,0.06172839506172839,0,0)" xlink:href="#aK"/><use transform="matrix(0.06172839506172839,0,0,0.06172839506172839,6.172839506172839,0)" xlink:href="#aN"/><use transform="matrix(0.06172839506172839,0,0,0.06172839506172839,19.691358024691358,0)" xlink:href="#aB"/><use transform="matrix(0.06172839506172839,0,0,0.06172839506172839,27.037037037037038,0)" xlink:href="#aJ"/></g><path fill="#ffad4f" d="M128 0H69L1-190h53L99-40l48-150h52" id="aO"/><path fill="#ffad4f" d="M25 0v-261h50V0H25" id="aP"/><g id="j"><use transform="matrix(0.06172839506172839,0,0,0.06172839506172839,0,0)" xlink:href="#aO"/><use transform="matrix(0.06172839506172839,0,0,0.06172839506172839,12.345679012345679,0)" xlink:href="#aC"/><use transform="matrix(0.06172839506172839,0,0,0.06172839506172839,24.691358024691358,0)" xlink:href="#aM"/><use transform="matrix(0.06172839506172839,0,0,0.06172839506172839,38.20987654320987,0)" xlink:href="#aP"/><use transform="matrix(0.06172839506172839,0,0,0.06172839506172839,44.382716049382715,0)" xlink:href="#aB"/><use transform="matrix(0.06172839506172839,0,0,0.06172839506172839,51.72839506172839,0)" xlink:href="#aF"/></g><path fill="#ffad4f" d="M199 0l-22-63H83L61 0H9l90-248h61L250 0h-51zm-33-102l-36-108c-10 38-24 72-36 108h72" id="aQ"/><path fill="#ffad4f" d="M175 0L67-191c6 58 2 128 3 191H24v-248h59L193-55c-6-58-2-129-3-193h46V0h-61" id="aR"/><g id="k"><use transform="matrix(0.08024691358024691,0,0,0.08024691358024691,0,0)" xlink:href="#aQ"/><use transform="matrix(0.08024691358024691,0,0,0.08024691358024691,20.78395061728395,0)" xlink:href="#aR"/><use transform="matrix(0.08024691358024691,0,0,0.08024691358024691,41.5679012345679,0)" xlink:href="#aR"/></g><path fill="#ffad4f" d="M24-248c120-7 223 5 221 122C244-46 201 0 124 0H24v-248zM76-40c74 7 117-18 117-86 0-67-45-88-117-82v168" id="aS"/><g id="l"><use transform="matrix(0.08024691358024691,0,0,0.08024691358024691,0,0)" xlink:href="#aS"/><use transform="matrix(0.08024691358024691,0,0,0.08024691358024691,20.78395061728395,0)" xlink:href="#aG"/><use transform="matrix(0.08024691358024691,0,0,0.08024691358024691,36.83333333333333,0)" xlink:href="#aI"/><use transform="matrix(0.08024691358024691,0,0,0.08024691358024691,54.407407407407405,0)" xlink:href="#aJ"/><use transform="matrix(0.08024691358024691,0,0,0.08024691358024691,71.98148148148148,0)" xlink:href="#aF"/><use transform="matrix(0.08024691358024691,0,0,0.08024691358024691,88.03086419753086,0)" xlink:href="#aK"/><use transform="matrix(0.08024691358024691,0,0,0.08024691358024691,96.05555555555556,0)" xlink:href="#aB"/></g><g id="m"><use transform="matrix(0.06172839506172839,0,0,0.06172839506172839,0,0)" xlink:href="#aQ"/><use transform="matrix(0.06172839506172839,0,0,0.06172839506172839,15.987654320987653,0)" xlink:href="#aR"/><use transform="matrix(0.06172839506172839,0,0,0.06172839506172839,31.975308641975307,0)" xlink:href="#aR"/></g><path fill="#ffad4f" d="M230 0l2-204L168 0h-37L68-204 70 0H24v-248h70l56 185 57-185h69V0h-46" id="aT"/><g id="n"><use transform="matrix(0.06172839506172839,0,0,0.06172839506172839,0,0)" xlink:href="#aT"/><use transform="matrix(0.06172839506172839,0,0,0.06172839506172839,18.456790123456788,0)" xlink:href="#aC"/><use transform="matrix(0.06172839506172839,0,0,0.06172839506172839,30.80246913580247,0)" xlink:href="#aN"/><use transform="matrix(0.06172839506172839,0,0,0.06172839506172839,44.32098765432099,0)" xlink:href="#aM"/><use transform="matrix(0.06172839506172839,0,0,0.06172839506172839,57.839506172839506,0)" xlink:href="#aC"/><use transform="matrix(0.06172839506172839,0,0,0.06172839506172839,70.18518518518519,0)" xlink:href="#aP"/></g><path fill="#ffad4f" d="M147 0L96-86 75-71V0H25v-261h50v150l67-79h53l-66 74L201 0h-54" id="aU"/><g id="o"><use transform="matrix(0.06172839506172839,0,0,0.06172839506172839,0,0)" xlink:href="#aA"/><use transform="matrix(0.06172839506172839,0,0,0.06172839506172839,14.814814814814813,0)" xlink:href="#aB"/><use transform="matrix(0.06172839506172839,0,0,0.06172839506172839,22.160493827160494,0)" xlink:href="#aC"/><use transform="matrix(0.06172839506172839,0,0,0.06172839506172839,34.50617283950617,0)" xlink:href="#aU"/><use transform="matrix(0.06172839506172839,0,0,0.06172839506172839,46.85185185185185,0)" xlink:href="#aG"/></g><path fill="#ffad4f" d="M24-248c93 1 206-16 204 79-1 75-69 88-152 82V0H24v-248zm52 121c47 0 100 7 100-41 0-47-54-39-100-39v80" id="aV"/><g id="p"><use transform="matrix(0.06172839506172839,0,0,0.06172839506172839,0,0)" xlink:href="#aV"/><use transform="matrix(0.06172839506172839,0,0,0.06172839506172839,14.814814814814813,0)" xlink:href="#aJ"/><use transform="matrix(0.06172839506172839,0,0,0.06172839506172839,28.33333333333333,0)" xlink:href="#aJ"/><use transform="matrix(0.06172839506172839,0,0,0.06172839506172839,41.85185185185185,0)" xlink:href="#aP"/><use transform="matrix(0.06172839506172839,0,0,0.06172839506172839,48.02469135802469,0)" xlink:href="#aF"/></g><path fill="#ffad4f" d="M231 0h-52l-39-155L100 0H48L-1-190h46L77-45c9-52 24-97 36-145h53l37 145 32-145h46" id="aW"/><path fill="#ffad4f" d="M114-157C55-157 80-60 75 0H25v-261h50l-1 109c12-26 28-41 61-42 86-1 58 113 63 194h-50c-7-57 23-157-34-157" id="aX"/><g id="q"><use transform="matrix(0.04938271604938272,0,0,0.04938271604938272,0,0)" xlink:href="#aW"/><use transform="matrix(0.04938271604938272,0,0,0.04938271604938272,13.827160493827162,0)" xlink:href="#aK"/><use transform="matrix(0.04938271604938272,0,0,0.04938271604938272,18.765432098765434,0)" xlink:href="#aB"/><use transform="matrix(0.04938271604938272,0,0,0.04938271604938272,24.641975308641978,0)" xlink:href="#aX"/><use transform="matrix(0.04938271604938272,0,0,0.04938271604938272,35.45679012345679,0)" xlink:href="#aH"/><use transform="matrix(0.04938271604938272,0,0,0.04938271604938272,46.27160493827161,0)" xlink:href="#aD"/><use transform="matrix(0.04938271604938272,0,0,0.04938271604938272,53.18518518518519,0)" xlink:href="#aC"/><use transform="matrix(0.04938271604938272,0,0,0.04938271604938272,63.061728395061735,0)" xlink:href="#aW"/></g><path fill="#ffad4f" d="M24 0v-248h195v40H76v63h132v40H76v65h150V0H24" id="aY"/><g id="r"><use transform="matrix(0.06172839506172839,0,0,0.06172839506172839,0,0)" xlink:href="#aY"/><use transform="matrix(0.06172839506172839,0,0,0.06172839506172839,14.814814814814813,0)" xlink:href="#aN"/><use transform="matrix(0.06172839506172839,0,0,0.06172839506172839,28.33333333333333,0)" xlink:href="#aB"/><use transform="matrix(0.06172839506172839,0,0,0.06172839506172839,35.679012345679006,0)" xlink:href="#aG"/><use transform="matrix(0.06172839506172839,0,0,0.06172839506172839,48.02469135802468,0)" xlink:href="#aD"/></g><path fill="#ffad4f" d="M220-157c-53 9-28 100-34 157h-49v-107c1-27-5-49-29-50C55-147 81-57 75 0H25l-1-190h47c2 12-1 28 3 38 10-53 101-56 108 0 13-22 24-43 59-42 82 1 51 116 57 194h-49v-107c-1-25-5-48-29-50" id="aZ"/><g id="s"><use transform="matrix(0.06172839506172839,0,0,0.06172839506172839,0,0)" xlink:href="#aC"/><use transform="matrix(0.06172839506172839,0,0,0.06172839506172839,12.345679012345679,0)" xlink:href="#aZ"/><use transform="matrix(0.06172839506172839,0,0,0.06172839506172839,32.098765432098766,0)" xlink:href="#aJ"/><use transform="matrix(0.06172839506172839,0,0,0.06172839506172839,45.617283950617285,0)" xlink:href="#aM"/><use transform="matrix(0.06172839506172839,0,0,0.06172839506172839,59.135802469135804,0)" xlink:href="#aN"/><use transform="matrix(0.06172839506172839,0,0,0.06172839506172839,72.65432098765432,0)" xlink:href="#aB"/></g><g id="t"><use transform="matrix(0.06172839506172839,0,0,0.06172839506172839,0,0)" xlink:href="#aC"/><use transform="matrix(0.06172839506172839,0,0,0.06172839506172839,12.345679012345679,0)" xlink:href="#aN"/><use transform="matrix(0.06172839506172839,0,0,0.06172839506172839,25.864197530864196,0)" xlink:href="#aH"/></g><path fill="#ffad4f" d="M190-63c-7 42-38 67-86 67-59 0-84-38-90-98-12-110 154-137 174-36l-49 2c-2-19-15-32-35-32-30 0-35 28-38 64-6 74 65 87 74 30" id="ba"/><g id="u"><use transform="matrix(0.06172839506172839,0,0,0.06172839506172839,0,0)" xlink:href="#ba"/><use transform="matrix(0.06172839506172839,0,0,0.06172839506172839,12.345679012345679,0)" xlink:href="#aP"/><use transform="matrix(0.06172839506172839,0,0,0.06172839506172839,18.51851851851852,0)" xlink:href="#aK"/><use transform="matrix(0.06172839506172839,0,0,0.06172839506172839,24.691358024691358,0)" xlink:href="#ba"/><use transform="matrix(0.06172839506172839,0,0,0.06172839506172839,37.03703703703704,0)" xlink:href="#aU"/></g><g id="v"><use transform="matrix(0.06172839506172839,0,0,0.06172839506172839,0,0)" xlink:href="#aW"/><use transform="matrix(0.06172839506172839,0,0,0.06172839506172839,17.28395061728395,0)" xlink:href="#aK"/><use transform="matrix(0.06172839506172839,0,0,0.06172839506172839,23.456790123456788,0)" xlink:href="#aB"/><use transform="matrix(0.06172839506172839,0,0,0.06172839506172839,30.80246913580247,0)" xlink:href="#aX"/><use transform="matrix(0.06172839506172839,0,0,0.06172839506172839,44.32098765432099,0)" xlink:href="#aH"/><use transform="matrix(0.06172839506172839,0,0,0.06172839506172839,57.839506172839506,0)" xlink:href="#aD"/><use transform="matrix(0.06172839506172839,0,0,0.06172839506172839,66.48148148148148,0)" xlink:href="#aC"/><use transform="matrix(0.06172839506172839,0,0,0.06172839506172839,78.82716049382717,0)" xlink:href="#aW"/></g><path fill="#ffad4f" d="M275 0h-61l-44-196L126 0H64L0-248h53L97-49l45-199h58l43 199 44-199h52" id="bb"/><g id="w"><use transform="matrix(0.06172839506172839,0,0,0.06172839506172839,0,0)" xlink:href="#bb"/><use transform="matrix(0.06172839506172839,0,0,0.06172839506172839,20.740740740740737,0)" xlink:href="#aK"/><use transform="matrix(0.06172839506172839,0,0,0.06172839506172839,26.913580246913575,0)" xlink:href="#aB"/><use transform="matrix(0.06172839506172839,0,0,0.06172839506172839,34.25925925925925,0)" xlink:href="#aX"/><use transform="matrix(0.06172839506172839,0,0,0.06172839506172839,47.77777777777777,0)" xlink:href="#aK"/><use transform="matrix(0.06172839506172839,0,0,0.06172839506172839,53.95061728395061,0)" xlink:href="#aN"/></g><path fill="#ffad4f" d="M52 0c1-96 47-148 87-207H15v-41h169v40c-36 62-79 113-81 208H52" id="bc"/><path fill="#ffad4f" d="M182-182c0 78-84 86-111 141h115V0H12c-6-101 99-100 120-180 1-22-12-31-33-32-23 0-32 14-35 34l-49-3c5-45 32-70 84-70 51 0 83 22 83 69" id="bd"/><g id="x"><use transform="matrix(0.06172839506172839,0,0,0.06172839506172839,0,0)" xlink:href="#bc"/><use transform="matrix(0.06172839506172839,0,0,0.06172839506172839,12.345679012345679,0)" xlink:href="#bd"/></g><g id="y"><use transform="matrix(0.06172839506172839,0,0,0.06172839506172839,0,0)" xlink:href="#aX"/><use transform="matrix(0.06172839506172839,0,0,0.06172839506172839,13.518518518518517,0)" xlink:href="#aJ"/><use transform="matrix(0.06172839506172839,0,0,0.06172839506172839,27.037037037037035,0)" xlink:href="#aM"/><use transform="matrix(0.06172839506172839,0,0,0.06172839506172839,40.55555555555555,0)" xlink:href="#aD"/><use transform="matrix(0.06172839506172839,0,0,0.06172839506172839,49.197530864197525,0)" xlink:href="#aF"/></g><path fill="#ffad4f" d="M121-226c-27-7-43 5-38 36h38v33H83V0H34v-157H6v-33h28c-9-59 32-81 87-68v32" id="be"/><g id="z"><use transform="matrix(0.06172839506172839,0,0,0.06172839506172839,0,0)" xlink:href="#aJ"/><use transform="matrix(0.06172839506172839,0,0,0.06172839506172839,13.518518518518517,0)" xlink:href="#be"/></g><g id="A"><use transform="matrix(0.06172839506172839,0,0,0.06172839506172839,0,0)" xlink:href="#aP"/><use transform="matrix(0.06172839506172839,0,0,0.06172839506172839,6.172839506172839,0)" xlink:href="#aC"/><use transform="matrix(0.06172839506172839,0,0,0.06172839506172839,18.51851851851852,0)" xlink:href="#aF"/><use transform="matrix(0.06172839506172839,0,0,0.06172839506172839,30.864197530864196,0)" xlink:href="#aB"/></g><g id="B"><use transform="matrix(0.06172839506172839,0,0,0.06172839506172839,0,0)" xlink:href="#aH"/><use transform="matrix(0.06172839506172839,0,0,0.06172839506172839,13.518518518518517,0)" xlink:href="#aG"/><use transform="matrix(0.06172839506172839,0,0,0.06172839506172839,25.864197530864196,0)" xlink:href="#aI"/><use transform="matrix(0.06172839506172839,0,0,0.06172839506172839,39.382716049382715,0)" xlink:href="#aJ"/><use transform="matrix(0.06172839506172839,0,0,0.06172839506172839,52.901234567901234,0)" xlink:href="#aF"/><use transform="matrix(0.06172839506172839,0,0,0.06172839506172839,65.24691358024691,0)" xlink:href="#aK"/><use transform="matrix(0.06172839506172839,0,0,0.06172839506172839,71.41975308641975,0)" xlink:href="#aB"/></g><path fill="#ffad4f" d="M146-102V0H94v-102L6-248h54l60 105 60-105h54" id="bf"/><g id="C"><use transform="matrix(0.04938271604938272,0,0,0.04938271604938272,0,0)" xlink:href="#bf"/><use transform="matrix(0.04938271604938272,0,0,0.04938271604938272,10.864197530864198,0)" xlink:href="#aG"/><use transform="matrix(0.04938271604938272,0,0,0.04938271604938272,20.74074074074074,0)" xlink:href="#aF"/></g><path fill="#ffad4f" d="M24 0v-248h52V0H24" id="bg"/><g id="D"><use transform="matrix(0.06172839506172839,0,0,0.06172839506172839,0,0)" xlink:href="#bg"/><use transform="matrix(0.06172839506172839,0,0,0.06172839506172839,6.172839506172839,0)" xlink:href="#aN"/><use transform="matrix(0.06172839506172839,0,0,0.06172839506172839,19.691358024691358,0)" xlink:href="#ba"/><use transform="matrix(0.06172839506172839,0,0,0.06172839506172839,32.03703703703704,0)" xlink:href="#aP"/><use transform="matrix(0.06172839506172839,0,0,0.06172839506172839,38.20987654320988,0)" xlink:href="#aM"/><use transform="matrix(0.06172839506172839,0,0,0.06172839506172839,51.7283950617284,0)" xlink:href="#aH"/><use transform="matrix(0.06172839506172839,0,0,0.06172839506172839,65.24691358024691,0)" xlink:href="#aG"/></g><path fill="#ffad4f" d="M101-251c68 0 84 54 84 127C185-50 166 4 99 4S15-52 14-124c-1-75 17-127 87-127zm-1 216c37-5 36-46 36-89s4-89-36-89c-39 0-36 45-36 89 0 43-3 85 36 89" id="bh"/><path fill="#ffad4f" d="M24 0v-54h51V0H24" id="bi"/><path fill="#ffad4f" d="M23 0v-37h61v-169l-59 37v-38l62-41h46v211h57V0H23" id="bj"/><path fill="#ffad4f" d="M249-155c45 1 62 31 62 79-1 48-18 79-63 79s-61-32-62-79c0-48 16-79 63-79zM97 0H61l162-248h36zM9-172c0-48 16-79 63-78 46 0 62 31 62 78 0 48-18 79-63 79S9-124 9-172zM249-25c24 0 24-26 24-51 0-26-1-52-24-52-24 0-25 26-25 52 0 25 0 51 25 51zM71-120c23 0 24-25 24-52 0-26 0-51-23-51-25 0-25 25-25 51 0 27 1 52 24 52" id="bk"/><g id="E"><use transform="matrix(0.06172839506172839,0,0,0.06172839506172839,0,0)" xlink:href="#bh"/><use transform="matrix(0.06172839506172839,0,0,0.06172839506172839,12.345679012345679,0)" xlink:href="#bi"/><use transform="matrix(0.06172839506172839,0,0,0.06172839506172839,18.51851851851852,0)" xlink:href="#bj"/><use transform="matrix(0.06172839506172839,0,0,0.06172839506172839,30.864197530864196,0)" xlink:href="#bk"/></g><g id="F"><use transform="matrix(0.06172839506172839,0,0,0.06172839506172839,0,0)" xlink:href="#aL"/><use transform="matrix(0.06172839506172839,0,0,0.06172839506172839,13.518518518518517,0)" xlink:href="#aG"/><use transform="matrix(0.06172839506172839,0,0,0.06172839506172839,25.864197530864196,0)" xlink:href="#aG"/></g><g id="G"><use transform="matrix(0.06172839506172839,0,0,0.06172839506172839,0,0)" xlink:href="#aJ"/><use transform="matrix(0.06172839506172839,0,0,0.06172839506172839,13.518518518518517,0)" xlink:href="#aN"/></g><g id="H"><use transform="matrix(0.06172839506172839,0,0,0.06172839506172839,0,0)" xlink:href="#aW"/><use transform="matrix(0.06172839506172839,0,0,0.06172839506172839,17.28395061728395,0)" xlink:href="#aK"/><use transform="matrix(0.06172839506172839,0,0,0.06172839506172839,23.456790123456788,0)" xlink:href="#aB"/><use transform="matrix(0.06172839506172839,0,0,0.06172839506172839,30.80246913580247,0)" xlink:href="#aX"/><use transform="matrix(0.06172839506172839,0,0,0.06172839506172839,44.32098765432099,0)" xlink:href="#aH"/><use transform="matrix(0.06172839506172839,0,0,0.06172839506172839,57.839506172839506,0)" xlink:href="#aD"/><use transform="matrix(0.06172839506172839,0,0,0.06172839506172839,66.48148148148148,0)" xlink:href="#aC"/><use transform="matrix(0.06172839506172839,0,0,0.06172839506172839,78.82716049382717,0)" xlink:href="#aW"/></g><g id="I"><use transform="matrix(0.06172839506172839,0,0,0.06172839506172839,0,0)" xlink:href="#aC"/><use transform="matrix(0.06172839506172839,0,0,0.06172839506172839,12.345679012345679,0)" xlink:href="#aZ"/><use transform="matrix(0.06172839506172839,0,0,0.06172839506172839,32.098765432098766,0)" xlink:href="#aJ"/><use transform="matrix(0.06172839506172839,0,0,0.06172839506172839,45.617283950617285,0)" xlink:href="#aM"/><use transform="matrix(0.06172839506172839,0,0,0.06172839506172839,59.135802469135804,0)" xlink:href="#aN"/><use transform="matrix(0.06172839506172839,0,0,0.06172839506172839,72.65432098765432,0)" xlink:href="#aB"/></g><g id="J"><use transform="matrix(0.04938271604938272,0,0,0.04938271604938272,0,0)" xlink:href="#aR"/><use transform="matrix(0.04938271604938272,0,0,0.04938271604938272,12.790123456790125,0)" xlink:href="#aJ"/></g><path fill="#ffad4f" d="M240-174c0 40-23 61-54 70L253 0h-59l-57-94H76V0H24v-248c93 4 217-23 216 74zM76-134c48-2 112 12 112-38 0-48-66-32-112-35v73" id="bl"/><g id="K"><use transform="matrix(0.06172839506172839,0,0,0.06172839506172839,0,0)" xlink:href="#bl"/><use transform="matrix(0.06172839506172839,0,0,0.06172839506172839,15.987654320987653,0)" xlink:href="#aG"/><use transform="matrix(0.06172839506172839,0,0,0.06172839506172839,28.333333333333332,0)" xlink:href="#ba"/><use transform="matrix(0.06172839506172839,0,0,0.06172839506172839,40.67901234567901,0)" xlink:href="#aG"/><use transform="matrix(0.06172839506172839,0,0,0.06172839506172839,53.02469135802469,0)" xlink:href="#aK"/><use transform="matrix(0.06172839506172839,0,0,0.06172839506172839,59.19753086419753,0)" xlink:href="#aO"/><use transform="matrix(0.06172839506172839,0,0,0.06172839506172839,71.54320987654322,0)" xlink:href="#aG"/></g><g id="L"><use transform="matrix(0.06172839506172839,0,0,0.06172839506172839,0,0)" xlink:href="#bb"/><use transform="matrix(0.06172839506172839,0,0,0.06172839506172839,20.740740740740737,0)" xlink:href="#aK"/><use transform="matrix(0.06172839506172839,0,0,0.06172839506172839,26.913580246913575,0)" xlink:href="#aB"/><use transform="matrix(0.06172839506172839,0,0,0.06172839506172839,34.25925925925925,0)" xlink:href="#aX"/><use transform="matrix(0.06172839506172839,0,0,0.06172839506172839,47.77777777777777,0)" xlink:href="#aH"/><use transform="matrix(0.06172839506172839,0,0,0.06172839506172839,61.29629629629629,0)" xlink:href="#aD"/><use transform="matrix(0.06172839506172839,0,0,0.06172839506172839,69.93827160493827,0)" xlink:href="#aC"/><use transform="matrix(0.06172839506172839,0,0,0.06172839506172839,82.28395061728395,0)" xlink:href="#aW"/></g><g id="M"><use transform="matrix(0.06172839506172839,0,0,0.06172839506172839,0,0)" xlink:href="#bb"/><use transform="matrix(0.06172839506172839,0,0,0.06172839506172839,20.740740740740737,0)" xlink:href="#aK"/><use transform="matrix(0.06172839506172839,0,0,0.06172839506172839,26.913580246913575,0)" xlink:href="#aB"/><use transform="matrix(0.06172839506172839,0,0,0.06172839506172839,34.25925925925925,0)" xlink:href="#aX"/><use transform="matrix(0.06172839506172839,0,0,0.06172839506172839,47.77777777777777,0)" xlink:href="#aH"/><use transform="matrix(0.06172839506172839,0,0,0.06172839506172839,61.29629629629629,0)" xlink:href="#aD"/><use transform="matrix(0.06172839506172839,0,0,0.06172839506172839,69.93827160493827,0)" xlink:href="#aC"/><use transform="matrix(0.06172839506172839,0,0,0.06172839506172839,82.28395061728395,0)" xlink:href="#aW"/></g><path fill="#ffad4f" d="M168-19C124 19 11 11 16-68c3-43 29-60 59-75-25-44-12-111 53-106 37 3 64 15 64 52 0 43-40 52-69 68 12 22 27 41 43 59 14-19 21-38 28-64l37 13c-8 29-19 52-34 74 12 10 32 16 52 10v35c-28 11-65-2-81-17zm-58-139c19-9 43-14 43-39 0-14-10-22-25-22-34 0-33 41-18 61zM60-68c-3 40 55 47 79 25-18-20-34-42-48-67-18 8-30 20-31 42" id="bm"/><use transform="matrix(0.06172839506172839,0,0,0.06172839506172839,0,0)" xlink:href="#bm" id="N"/><path fill="#ffad4f" d="M67-125c0 53 21 87 73 88 37 1 54-22 65-47l45 17C233-25 199 4 140 4 58 4 20-42 15-125 8-235 124-281 211-232c18 10 29 29 36 50l-46 12c-8-25-30-41-62-41-52 0-71 34-72 86" id="bn"/><g id="O"><use transform="matrix(0.06172839506172839,0,0,0.06172839506172839,0,0)" xlink:href="#bn"/><use transform="matrix(0.06172839506172839,0,0,0.06172839506172839,15.987654320987653,0)" xlink:href="#aP"/><use transform="matrix(0.06172839506172839,0,0,0.06172839506172839,22.160493827160494,0)" xlink:href="#aC"/><use transform="matrix(0.06172839506172839,0,0,0.06172839506172839,34.50617283950617,0)" xlink:href="#aK"/><use transform="matrix(0.06172839506172839,0,0,0.06172839506172839,40.67901234567901,0)" xlink:href="#aZ"/></g><g id="P"><use transform="matrix(0.07407407407407407,0,0,0.07407407407407407,0,0)" xlink:href="#aY"/><use transform="matrix(0.07407407407407407,0,0,0.07407407407407407,17.77777777777778,0)" xlink:href="#aR"/><use transform="matrix(0.07407407407407407,0,0,0.07407407407407407,36.96296296296296,0)" xlink:href="#aS"/></g><path fill="#ffad4f" d="M195-6C206 82 75 100 31 46c-4-6-6-13-8-21l49-6c3 16 16 24 34 25 40 0 42-37 40-79-11 22-30 35-61 35-53 0-70-43-70-97 0-56 18-96 73-97 30 0 46 14 59 34l2-30h47zm-90-29c32 0 41-27 41-63 0-35-9-62-40-62-32 0-39 29-40 63 0 36 9 62 39 62" id="bo"/><g id="Q"><use transform="matrix(0.06172839506172839,0,0,0.06172839506172839,0,0)" xlink:href="#bn"/><use transform="matrix(0.06172839506172839,0,0,0.06172839506172839,15.987654320987653,0)" xlink:href="#aJ"/><use transform="matrix(0.06172839506172839,0,0,0.06172839506172839,29.50617283950617,0)" xlink:href="#aZ"/><use transform="matrix(0.06172839506172839,0,0,0.06172839506172839,49.25925925925925,0)" xlink:href="#aI"/><use transform="matrix(0.06172839506172839,0,0,0.06172839506172839,62.77777777777777,0)" xlink:href="#aJ"/><use transform="matrix(0.06172839506172839,0,0,0.06172839506172839,76.29629629629629,0)" xlink:href="#aM"/><use transform="matrix(0.06172839506172839,0,0,0.06172839506172839,89.81481481481481,0)" xlink:href="#aN"/><use transform="matrix(0.06172839506172839,0,0,0.06172839506172839,103.33333333333333,0)" xlink:href="#aH"/><use transform="matrix(0.06172839506172839,0,0,0.06172839506172839,116.85185185185185,0)" xlink:href="#aK"/><use transform="matrix(0.06172839506172839,0,0,0.06172839506172839,123.02469135802468,0)" xlink:href="#aN"/><use transform="matrix(0.06172839506172839,0,0,0.06172839506172839,136.5432098765432,0)" xlink:href="#bo"/></g><g id="R"><use transform="matrix(0.06172839506172839,0,0,0.06172839506172839,0,0)" xlink:href="#aQ"/><use transform="matrix(0.06172839506172839,0,0,0.06172839506172839,15.987654320987653,0)" xlink:href="#aR"/><use transform="matrix(0.06172839506172839,0,0,0.06172839506172839,31.975308641975307,0)" xlink:href="#aR"/></g><g id="S"><use transform="matrix(0.06172839506172839,0,0,0.06172839506172839,0,0)" xlink:href="#aV"/><use transform="matrix(0.06172839506172839,0,0,0.06172839506172839,14.814814814814813,0)" xlink:href="#aD"/><use transform="matrix(0.06172839506172839,0,0,0.06172839506172839,23.456790123456788,0)" xlink:href="#aJ"/><use transform="matrix(0.06172839506172839,0,0,0.06172839506172839,36.9753086419753,0)" xlink:href="#be"/><use transform="matrix(0.06172839506172839,0,0,0.06172839506172839,44.32098765432098,0)" xlink:href="#aK"/><use transform="matrix(0.06172839506172839,0,0,0.06172839506172839,50.49382716049382,0)" xlink:href="#aB"/></g><g id="T"><use transform="matrix(0.04938271604938272,0,0,0.04938271604938272,0,0)" xlink:href="#bn"/><use transform="matrix(0.04938271604938272,0,0,0.04938271604938272,12.790123456790125,0)" xlink:href="#aP"/><use transform="matrix(0.04938271604938272,0,0,0.04938271604938272,17.7283950617284,0)" xlink:href="#aC"/><use transform="matrix(0.04938271604938272,0,0,0.04938271604938272,27.604938271604947,0)" xlink:href="#aK"/><use transform="matrix(0.04938271604938272,0,0,0.04938271604938272,32.543209876543216,0)" xlink:href="#aZ"/></g><g id="U"><use transform="matrix(0.07407407407407407,0,0,0.07407407407407407,0,0)" xlink:href="#bn"/><use transform="matrix(0.07407407407407407,0,0,0.07407407407407407,19.185185185185183,0)" xlink:href="#aP"/><use transform="matrix(0.07407407407407407,0,0,0.07407407407407407,26.592592592592588,0)" xlink:href="#aC"/><use transform="matrix(0.07407407407407407,0,0,0.07407407407407407,41.407407407407405,0)" xlink:href="#aK"/><use transform="matrix(0.07407407407407407,0,0,0.07407407407407407,48.81481481481481,0)" xlink:href="#aZ"/></g><g id="V"><use transform="matrix(0.06172839506172839,0,0,0.06172839506172839,0,0)" xlink:href="#aQ"/><use transform="matrix(0.06172839506172839,0,0,0.06172839506172839,15.987654320987653,0)" xlink:href="#aB"/><use transform="matrix(0.06172839506172839,0,0,0.06172839506172839,23.333333333333332,0)" xlink:href="#aP"/><use transform="matrix(0.06172839506172839,0,0,0.06172839506172839,29.50617283950617,0)" xlink:href="#aG"/><use transform="matrix(0.06172839506172839,0,0,0.06172839506172839,41.85185185185185,0)" xlink:href="#aC"/><use transform="matrix(0.06172839506172839,0,0,0.06172839506172839,54.197530864197525,0)" xlink:href="#aF"/><use transform="matrix(0.06172839506172839,0,0,0.06172839506172839,66.5432098765432,0)" xlink:href="#aB"/></g><path fill="#ffad4f" d="M123 10C108 53 80 86 19 72V37c35 8 53-11 59-39L3-190h52l48 148c12-52 28-100 44-148h51" id="bp"/><g id="W"><use transform="matrix(0.06172839506172839,0,0,0.06172839506172839,0,0)" xlink:href="#aG"/><use transform="matrix(0.06172839506172839,0,0,0.06172839506172839,12.345679012345679,0)" xlink:href="#aO"/><use transform="matrix(0.06172839506172839,0,0,0.06172839506172839,24.691358024691358,0)" xlink:href="#aG"/><use transform="matrix(0.06172839506172839,0,0,0.06172839506172839,37.03703703703704,0)" xlink:href="#aD"/><use transform="matrix(0.06172839506172839,0,0,0.06172839506172839,45.67901234567901,0)" xlink:href="#bp"/></g><use transform="matrix(0.06172839506172839,0,0,0.06172839506172839,0,0)" xlink:href="#bj" id="X"/><g id="Y"><use transform="matrix(0.06172839506172839,0,0,0.06172839506172839,0,0)" xlink:href="#aX"/><use transform="matrix(0.06172839506172839,0,0,0.06172839506172839,13.518518518518517,0)" xlink:href="#aJ"/><use transform="matrix(0.06172839506172839,0,0,0.06172839506172839,27.037037037037035,0)" xlink:href="#aM"/><use transform="matrix(0.06172839506172839,0,0,0.06172839506172839,40.55555555555555,0)" xlink:href="#aD"/></g><g id="Z"><use transform="matrix(0.06172839506172839,0,0,0.06172839506172839,0,0)" xlink:href="#bn"/><use transform="matrix(0.06172839506172839,0,0,0.06172839506172839,15.987654320987653,0)" xlink:href="#aJ"/><use transform="matrix(0.06172839506172839,0,0,0.06172839506172839,29.50617283950617,0)" xlink:href="#aZ"/><use transform="matrix(0.06172839506172839,0,0,0.06172839506172839,49.25925925925925,0)" xlink:href="#aI"/><use transform="matrix(0.06172839506172839,0,0,0.06172839506172839,62.77777777777777,0)" xlink:href="#aJ"/><use transform="matrix(0.06172839506172839,0,0,0.06172839506172839,76.29629629629629,0)" xlink:href="#aM"/><use transform="matrix(0.06172839506172839,0,0,0.06172839506172839,89.81481481481481,0)" xlink:href="#aN"/><use transform="matrix(0.06172839506172839,0,0,0.06172839506172839,103.33333333333333,0)" xlink:href="#aH"/></g><g id="aa"><use transform="matrix(0.06172839506172839,0,0,0.06172839506172839,0,0)" xlink:href="#aQ"/><use transform="matrix(0.06172839506172839,0,0,0.06172839506172839,15.987654320987653,0)" xlink:href="#aR"/><use transform="matrix(0.06172839506172839,0,0,0.06172839506172839,31.975308641975307,0)" xlink:href="#aR"/></g><g id="ab"><use transform="matrix(0.06172839506172839,0,0,0.06172839506172839,0,0)" xlink:href="#aQ"/><use transform="matrix(0.06172839506172839,0,0,0.06172839506172839,15.987654320987653,0)" xlink:href="#aM"/><use transform="matrix(0.06172839506172839,0,0,0.06172839506172839,29.50617283950617,0)" xlink:href="#aB"/><use transform="matrix(0.06172839506172839,0,0,0.06172839506172839,36.85185185185185,0)" xlink:href="#aJ"/><use transform="matrix(0.06172839506172839,0,0,0.06172839506172839,50.37037037037037,0)" xlink:href="#aZ"/><use transform="matrix(0.06172839506172839,0,0,0.06172839506172839,70.12345679012346,0)" xlink:href="#aC"/><use transform="matrix(0.06172839506172839,0,0,0.06172839506172839,82.46913580246914,0)" xlink:href="#aB"/><use transform="matrix(0.06172839506172839,0,0,0.06172839506172839,89.81481481481482,0)" xlink:href="#aK"/><use transform="matrix(0.06172839506172839,0,0,0.06172839506172839,95.98765432098766,0)" xlink:href="#ba"/><use transform="matrix(0.06172839506172839,0,0,0.06172839506172839,108.33333333333334,0)" xlink:href="#aC"/><use transform="matrix(0.06172839506172839,0,0,0.06172839506172839,120.67901234567903,0)" xlink:href="#aP"/><use transform="matrix(0.06172839506172839,0,0,0.06172839506172839,126.85185185185188,0)" xlink:href="#aP"/><use transform="matrix(0.06172839506172839,0,0,0.06172839506172839,133.0246913580247,0)" xlink:href="#bp"/></g><path fill="#ffad4f" d="M136-208V0H84v-208H4v-40h212v40h-80" id="bq"/><g id="ac"><use transform="matrix(0.07407407407407407,0,0,0.07407407407407407,0,0)" xlink:href="#aE"/><use transform="matrix(0.07407407407407407,0,0,0.07407407407407407,19.185185185185183,0)" xlink:href="#aV"/><use transform="matrix(0.07407407407407407,0,0,0.07407407407407407,36.96296296296296,0)" xlink:href="#aS"/><use transform="matrix(0.07407407407407407,0,0,0.07407407407407407,56.148148148148145,0)" xlink:href="#aQ"/><use transform="matrix(0.07407407407407407,0,0,0.07407407407407407,73.33333333333333,0)" xlink:href="#bq"/><use transform="matrix(0.07407407407407407,0,0,0.07407407407407407,89.55555555555556,0)" xlink:href="#aY"/></g><g id="ad"><use transform="matrix(0.07407407407407407,0,0,0.07407407407407407,0,0)" xlink:href="#bn"/><use transform="matrix(0.07407407407407407,0,0,0.07407407407407407,19.185185185185183,0)" xlink:href="#aJ"/><use transform="matrix(0.07407407407407407,0,0,0.07407407407407407,35.407407407407405,0)" xlink:href="#aN"/><use transform="matrix(0.07407407407407407,0,0,0.07407407407407407,51.629629629629626,0)" xlink:href="#aB"/><use transform="matrix(0.07407407407407407,0,0,0.07407407407407407,60.44444444444444,0)" xlink:href="#aK"/><use transform="matrix(0.07407407407407407,0,0,0.07407407407407407,67.85185185185185,0)" xlink:href="#aN"/><use transform="matrix(0.07407407407407407,0,0,0.07407407407407407,84.07407407407408,0)" xlink:href="#aM"/><use transform="matrix(0.07407407407407407,0,0,0.07407407407407407,100.2962962962963,0)" xlink:href="#aJ"/><use transform="matrix(0.07407407407407407,0,0,0.07407407407407407,116.51851851851853,0)" xlink:href="#aM"/><use transform="matrix(0.07407407407407407,0,0,0.07407407407407407,132.74074074074076,0)" xlink:href="#aF"/><use transform="matrix(0.07407407407407407,0,0,0.07407407407407407,147.55555555555557,0)" xlink:href="#aP"/><use transform="matrix(0.07407407407407407,0,0,0.07407407407407407,154.962962962963,0)" xlink:href="#bp"/></g><g id="ae"><use transform="matrix(0.07407407407407407,0,0,0.07407407407407407,0,0)" xlink:href="#aC"/><use transform="matrix(0.07407407407407407,0,0,0.07407407407407407,14.814814814814813,0)" xlink:href="#aF"/></g><use transform="matrix(0.07407407407407407,0,0,0.07407407407407407,0,0)" xlink:href="#aC" id="af"/><g id="ag"><use transform="matrix(0.07407407407407407,0,0,0.07407407407407407,0,0)" xlink:href="#aN"/><use transform="matrix(0.07407407407407407,0,0,0.07407407407407407,16.22222222222222,0)" xlink:href="#aG"/><use transform="matrix(0.07407407407407407,0,0,0.07407407407407407,31.037037037037035,0)" xlink:href="#aW"/></g><g id="ah"><use transform="matrix(0.07407407407407407,0,0,0.07407407407407407,0,0)" xlink:href="#aQ"/><use transform="matrix(0.07407407407407407,0,0,0.07407407407407407,19.185185185185183,0)" xlink:href="#aR"/><use transform="matrix(0.07407407407407407,0,0,0.07407407407407407,38.37037037037037,0)" xlink:href="#aR"/></g><g id="ai"><use transform="matrix(0.07407407407407407,0,0,0.07407407407407407,0,0)" xlink:href="#aB"/><use transform="matrix(0.07407407407407407,0,0,0.07407407407407407,8.814814814814815,0)" xlink:href="#aJ"/><use transform="matrix(0.07407407407407407,0,0,0.07407407407407407,25.037037037037038,0)" xlink:href="#aU"/><use transform="matrix(0.07407407407407407,0,0,0.07407407407407407,39.85185185185185,0)" xlink:href="#aG"/><use transform="matrix(0.07407407407407407,0,0,0.07407407407407407,54.66666666666666,0)" xlink:href="#aN"/></g></defs></g></svg>